# xmcd
#
# Track frame offsets:
#	150
#	27504
#	43469
#	66364
#	92235
#	115373
#	130851
#	154302
#	179050
#	205626
#	220402
#	236079
#	263725
#
# Disc length: 3857 seconds
#
# Revision: 1
# Processed by: cddbd v1.5.2PL0 Copyright (c) Steve Scherf et al.
# Submitted via: audiograbber 1.83.01
#
DISCID=cd0f0f0d
DTITLE=Neil Gaiman - Das Graveyard-Buch [CD3)
DYEAR=2008
DGENRE=Hörbuch
TTITLE0=Der Grabstein der Hexe - Teil 06
TTITLE1=Der Grabstein der Hexe - Teil 07
TTITLE2=Der Grabstein der Hexe - Teil 08
TTITLE3=Der Grabstein der Hexe - Teil 09
TTITLE4=Der Grabstein der Hexe - Teil 10
TTITLE5=Danse Macabre - Teil 01
TTITLE6=Danse Macabre - Teil 02
TTITLE7=Danse Macabre - Teil 03
TTITLE8=Danse Macabre - Teil 04
TTITLE9=Zwischenspiel: Die Versammlung
TTITLE10=Nobody Owens Schulzeit - Teil 01
TTITLE11=Nobody Owens Schulzeit - Teil 02
TTITLE12=Nobody Owens Schulzeit - Teil 03
EXTD=
EXTT0=
EXTT1=
EXTT2=
EXTT3=
EXTT4=
EXTT5=
EXTT6=
EXTT7=
EXTT8=
EXTT9=
EXTT10=
EXTT11=
EXTT12=
PLAYORDER=
